name C:\Users\u0150099\Documents\master_thesis\3dpredictsim\Results\debug\Fal_s1_mtjc2_sc_cspx10_oy2_ATx70_MTc2_MTPm_k1_d01_MTJm_nl_MG_exp5_table_d01_PF_Natali2010_ls146_FDB2_lTs125_Fpsl10_ig21_wAk5e+04_wa2e+03_wpMnD1e+03.mot
datacolumns 130
datarows 4
range 1.04551874 1.07688430
endheader
time	pelvis_tilt	pelvis_list	pelvis_rotation	pelvis_tx	pelvis_ty	pelvis_tz	hip_flexion_l	hip_adduction_l	hip_rotation_l	hip_flexion_r	hip_adduction_r	hip_rotation_r	knee_angle_l	knee_angle_r	ankle_angle_l	ankle_angle_r	subtalar_angle_l	subtalar_angle_r	mtj_angle_l	mtj_angle_r	mtp_angle_l	mtp_angle_r	lumbar_extension	lumbar_bending	lumbar_rotation	arm_flex_l	arm_add_l	arm_rot_l	arm_flex_r	arm_add_r	arm_rot_r	elbow_flex_l	elbow_flex_r	pro_sup_l	pro_sup_r	glut_med1_l/activation	glut_med2_l/activation	glut_med3_l/activation	glut_min1_l/activation	glut_min2_l/activation	glut_min3_l/activation	semimem_l/activation	semiten_l/activation	bifemlh_l/activation	bifemsh_l/activation	sar_l/activation	add_long_l/activation	add_brev_l/activation	add_mag1_l/activation	add_mag2_l/activation	add_mag3_l/activation	tfl_l/activation	pect_l/activation	grac_l/activation	glut_max1_l/activation	glut_max2_l/activation	glut_max3_l/activation	iliacus_l/activation	psoas_l/activation	quad_fem_l/activation	gem_l/activation	peri_l/activation	rect_fem_l/activation	vas_med_l/activation	vas_int_l/activation	vas_lat_l/activation	med_gas_l/activation	lat_gas_l/activation	soleus_l/activation	tib_post_l/activation	flex_dig_l/activation	flex_hal_l/activation	tib_ant_l/activation	per_brev_l/activation	per_long_l/activation	per_tert_l/activation	ext_dig_l/activation	ext_hal_l/activation	FDB_l/activation	ercspn_l/activation	intobl_l/activation	extobl_l/activation	glut_med1_r/activation	glut_med2_r/activation	glut_med3_r/activation	glut_min1_r/activation	glut_min2_r/activation	glut_min3_r/activation	semimem_r/activation	semiten_r/activation	bifemlh_r/activation	bifemsh_r/activation	sar_r/activation	add_long_r/activation	add_brev_r/activation	add_mag1_r/activation	add_mag2_r/activation	add_mag3_r/activation	tfl_r/activation	pect_r/activation	grac_r/activation	glut_max1_r/activation	glut_max2_r/activation	glut_max3_r/activation	iliacus_r/activation	psoas_r/activation	quad_fem_r/activation	gem_r/activation	peri_r/activation	rect_fem_r/activation	vas_med_r/activation	vas_int_r/activation	vas_lat_r/activation	med_gas_r/activation	lat_gas_r/activation	soleus_r/activation	tib_post_r/activation	flex_dig_r/activation	flex_hal_r/activation	tib_ant_r/activation	per_brev_r/activation	per_long_r/activation	per_tert_r/activation	ext_dig_r/activation	ext_hal_r/activation	FDB_r/activation	ercspn_r/activation	intobl_r/activation	extobl_r/activation	
          1.04551874	         -2.92748826	         -1.35877185	          2.44414657	          1.39053992	          0.91046572	         -0.00276099	        -13.15006389	          1.85159851	          8.63379920	         29.66165514	          2.79177321	         -2.78380978	        -16.53562451	        -13.40749655	          8.32208020	         11.19376548	          8.25715593	          5.60904148	         -1.53186628	         -0.63780663	         16.29845495	          5.64094436	         -4.20938229	          0.89940028	         -1.60972692	          3.09043388	        -13.82901547	         19.31660960	         -3.74048400	        -13.46762827	          6.21842885	         40.29351426	         26.14850234	         86.51662706	         86.51662706	          0.25532306	          0.05162852	          0.05000010	          0.44575481	          0.17755216	          0.06342149	          0.05000186	          0.05000023	          0.05000019	          0.05000089	          0.09132145	          0.05000025	          0.05000016	          0.05000035	          0.05000108	          0.05000069	          0.52807737	          0.05000114	          0.05000042	          0.05000190	          0.05000094	          0.05000056	          0.34756862	          0.75441903	          0.05000009	          0.05000036	          0.05000010	          0.42923924	          0.16035402	          0.18558610	          0.13747627	          0.34855926	          0.45012854	          0.27587144	          0.52233833	          0.37524104	          0.51649911	          0.05000001	          0.06894339	          0.22645081	          0.05000011	          0.05000005	          0.08574081	          0.71428524	          0.05000002	          0.05000001	          0.05000003	          0.06894279	          0.05000026	          0.05871270	          0.05000013	          0.05000019	          0.05000096	          0.31023073	          0.06894356	          0.33412151	          0.05000119	          0.05000220	          0.08556201	          0.17436712	          0.12871956	          0.19443931	          0.18416239	          0.05000229	          0.05015383	          0.09020869	          0.05871349	          0.09252667	          0.14514293	          0.05000013	          0.05000017	          0.15652573	          0.05000186	          0.05000050	          0.05000016	          0.05853285	          0.05710149	          0.05030299	          0.06583939	          0.05000105	          0.05000015	          0.08940600	          0.09506314	          0.05000426	          0.28740055	          0.05000438	          0.08830122	          0.18778876	          0.54858883	          0.33269625	          0.09133688	          0.06047628	          0.07300391	          0.09506467	
          1.05597392	         -2.92982794	         -1.42814363	          2.70181518	          1.40695897	          0.90957650	         -0.00247273	        -13.67496811	          1.49716926	          8.66434514	         29.32101691	          3.10850622	         -2.80257173	        -17.14265579	        -13.61163195	          7.25613986	         10.66809690	          8.99357345	          5.69799277	         -2.50375511	         -0.30162174	         18.79583526	          4.78902256	         -4.03929464	          1.05315813	         -1.69107982	          2.62422934	        -13.79551039	         19.16749829	         -4.50656947	        -13.45050586	          5.47114057	         42.00617642	         25.71589262	         86.51662706	         86.51662706	          0.21743450	          0.05000008	          0.05000003	          0.37960721	          0.15120442	          0.05401021	          0.05000241	          0.05000023	          0.05000014	          0.05000049	          0.07777008	          0.09816688	          0.05001965	          0.05000067	          0.05000184	          0.05000099	          0.47183051	          0.05871334	          0.05000032	          0.05000069	          0.05000042	          0.05000038	          0.29599126	          0.67948890	          0.05000004	          0.05000019	          0.05000025	          0.39581568	          0.17915304	          0.19126467	          0.17514087	          0.31122416	          0.40312603	          0.23493355	          0.46858544	          0.31955839	          0.43985416	          0.05000000	          0.05871262	          0.19284669	          0.05000007	          0.05000004	          0.07301734	          0.60828900	          0.05000003	          0.05000014	          0.06769737	          0.05871265	          0.05871267	          0.05000022	          0.05871273	          0.05871271	          0.05871238	          0.27335246	          0.05871277	          0.29322855	          0.05871264	          0.05000029	          0.15283198	          0.19262723	          0.10961857	          0.16571210	          0.17985543	          0.05000017	          0.05003730	          0.07682268	          0.05000096	          0.07879635	          0.17654906	          0.05930650	          0.05000234	          0.43248775	          0.22383746	          0.11770410	          0.05000009	          0.05000011	          0.05000011	          0.05000009	          0.06226242	          0.05000035	          0.05000002	          0.10154126	          0.08095704	          0.08095675	          0.30186791	          0.08217921	          0.11633907	          0.18168386	          0.59127635	          0.28332686	          0.08191972	          0.05150193	          0.06217051	          0.08095758	
          1.06642911	         -2.93016946	         -1.50868555	          2.94340216	          1.42363020	          0.90869645	         -0.00216721	        -14.11444069	          1.12590899	          8.66066391	         28.97811013	          3.37917676	         -2.80534244	        -17.86033947	        -14.46247218	          6.02528530	          9.77769718	          9.76615051	          5.78297205	         -3.56494419	          0.01780502	         21.46267908	          3.88970411	         -3.85634574	          1.21867029	         -1.76535678	          2.08804152	        -13.76123443	         18.97552918	         -5.27335120	        -13.45641539	          4.95064828	         43.73958853	         25.25836243	         86.51662706	         86.51662706	          0.18516837	          0.05871270	          0.05871268	          0.32327551	          0.12876653	          0.05871267	          0.05000299	          0.05000076	          0.05869899	          0.05000008	          0.06622967	          0.22720850	          0.12260289	          0.06772599	          0.05871355	          0.06446132	          0.40181362	          0.05000138	          0.05871297	          0.05871304	          0.05871293	          0.05871294	          0.25206770	          0.59570871	          0.05871281	          0.05871288	          0.05871258	          0.33707874	          0.17658342	          0.18588830	          0.17081361	          0.26504020	          0.34330463	          0.20007062	          0.39904984	          0.27213765	          0.37458217	          0.05000009	          0.05000003	          0.16422925	          0.05000003	          0.05000002	          0.06218195	          0.51802205	          0.06509131	          0.06894349	          0.06894338	          0.05000002	          0.05000006	          0.13830730	          0.05000009	          0.05000009	          0.05000010	          0.23278840	          0.05000013	          0.24971497	          0.05000005	          0.06894534	          0.13015297	          0.35355677	          0.33158451	          0.20254333	          0.20338971	          0.05871217	          0.08081650	          0.06542274	          0.06233042	          0.12077822	          0.18574556	          0.06894357	          0.06894361	          0.65520097	          0.19062123	          0.10023753	          0.06894351	          0.12201556	          0.13114783	          0.10354231	          0.06894349	          0.06894360	          0.06894344	          0.08647324	          0.06894355	          0.06894338	          0.37531653	          0.10995470	          0.09907500	          0.37502144	          0.62378909	          0.24128305	          0.06976326	          0.05000000	          0.05294474	          0.06894390	
          1.07688430	         -2.92919828	         -1.62245547	          3.16968708	          1.44049537	          0.90787013	         -0.00187743	        -14.45107921	          0.72939230	          8.63822460	         28.54600252	          3.57569343	         -2.72021704	        -18.71084019	        -15.47351414	          4.62242488	          8.82924624	         10.52753180	          5.87215213	         -4.68368310	          0.27343161	         24.19555081	          2.97453942	         -3.66165320	          1.41982112	         -1.83261842	          1.49581064	        -13.71998895	         18.76577604	         -6.01746683	        -13.48981125	          4.65980961	         45.47235217	         24.73991281	         86.51662706	         86.51662706	          0.18843163	          0.05000009	          0.05000003	          0.27530376	          0.10965833	          0.05000017	          0.05000295	          0.05000028	          0.05000010	          0.05871297	          0.05871358	          0.22727700	          0.15866761	          0.05767595	          0.05000140	          0.05489577	          0.47387533	          0.06894349	          0.05000079	          0.05000075	          0.05000045	          0.05000038	          0.21466221	          0.68233006	          0.05000015	          0.05000026	          0.05000003	          0.28705801	          0.15037938	          0.15830346	          0.14546577	          0.22570960	          0.29236003	          0.17038117	          0.33983293	          0.23175386	          0.31899616	          0.16167329	          0.11777481	          0.13985851	          0.11799146	          0.05000014	          0.05295449	          0.44115025	          0.09532824	          0.05871263	          0.05871256	          0.35154410	          0.34852864	          0.40518473	          0.44004892	          0.31033852	          0.27653058	          0.19897417	          0.15681364	          0.21748652	          0.09506314	          0.05871434	          0.11083903	          0.30109107	          0.28237924	          0.17248809	          0.26356559	          0.05000028	          0.06882485	          0.22876129	          0.22580175	          0.21223539	          0.25883793	          0.05871279	          0.05871278	          0.55797257	          0.16233414	          0.14777484	          0.05871266	          0.10390910	          0.11168619	          0.08817717	          0.05871264	          0.05871273	          0.05871259	          0.13343018	          0.05871274	          0.05871271	          0.45641943	          0.09363803	          0.10847003	          0.40439229	          0.77830982	          0.55291020	          0.44978260	          0.07810399	          0.09319047	          0.05871298	
